<svg xmlns="http://www.w3.org/2000/svg" width="20" height="20" viewBox="0 0 48 48">
  <g>
    <path fill="#4285F4" d="M43.6 20.5h-1.9V20H24v8h11.3c-1.6 4.3-5.7 7-11.3 7-6.6 0-12-5.4-12-12s5.4-12 12-12c2.7 0 5.2.9 7.2 2.4l6.1-6.1C34.3 5.1 29.4 3 24 3 12.9 3 4 11.9 4 23s8.9 20 20 20c11 0 19.7-8 19.7-20 0-1.3-.1-2.7-.3-4z"/>
    <path fill="#34A853" d="M6.3 14.7l6.6 4.8C14.5 16.1 18.8 13 24 13c2.7 0 5.2.9 7.2 2.4l6.1-6.1C34.3 5.1 29.4 3 24 3 16.1 3 9.1 7.6 6.3 14.7z"/>
    <path fill="#FBBC05" d="M24 43c5.3 0 10.2-1.8 13.9-4.9l-6.4-5.2C29.2 34.7 26.7 35.5 24 35.5c-5.5 0-10.1-3.7-11.7-8.7l-6.6 5.1C9.1 40.4 16.1 45 24 45z"/>
    <path fill="#EA4335" d="M43.6 20.5h-1.9V20H24v8h11.3c-1.1 3-3.5 5.2-6.3 6.4l6.4 5.2C40.7 36.2 44 30.5 44 24c0-1.3-.1-2.7-.4-3.5z"/>
  </g>
</svg> 